<svg width="200" height="57" viewBox="0 0 200 57" fill="none" xmlns="http://www.w3.org/2000/svg">
<path d="M199.66 17.7309L199.36 19.0307L196.761 19.7307C196.194 19.9306 195.694 20.2972 195.361 20.7972L183.462 35.9618L178.963 50.8264C178.73 51.593 179.03 52.0596 179.53 52.1263L182.662 52.8928L182.229 54.1926H166.631L167.065 52.8928L169.964 52.1929C170.731 52.0263 171.297 51.393 171.431 50.6265L175.897 35.5952L171.997 20.9305C171.831 20.2306 171.631 19.6307 170.864 19.4307L169.031 18.9308L169.331 17.6309H182.662L182.362 18.9308L180.096 19.564C179.296 19.7973 179.13 20.1973 179.33 20.9638L182.529 33.4288L192.028 20.7972C192.194 20.5972 192.294 20.3306 192.328 20.0973C192.328 19.7973 192.095 19.6307 191.761 19.5307L189.162 18.8974L189.528 17.5976L199.66 17.7309Z" fill="white"/>
<path d="M168.631 25.9965H166.865L165.298 21.2638C165.165 20.5305 164.465 20.0306 163.732 20.1306H159.832L150.733 50.8264C150.5 51.593 150.733 52.0596 151.433 52.2262L154.033 52.9261L153.6 54.226H138.268L138.702 52.9261L141.401 52.2929C142.335 52.2262 143.068 51.493 143.168 50.5931L152.267 20.1306H147.734C147.034 20.1973 146.401 20.5972 146.034 21.1971L142.835 25.5965H141.068L143.901 16.7977H145.034C145.234 17.3643 145.734 17.7309 146.334 17.7309H165.398C166.131 17.8309 166.898 17.4643 167.231 16.7977H168.431L168.631 25.9965ZM140.402 25.5965H138.635L136.902 21.0638C136.735 20.4639 136.135 20.0639 135.502 20.1306H128.27L124.17 34.0287H131.036C131.736 34.0287 132.169 33.6621 132.669 32.9622L134.569 30.1959H136.335L133.069 41.2611H131.336L131.403 37.3616C131.403 36.6617 130.969 36.4284 130.27 36.4284H123.47L118.904 51.7596H128.903C129.903 51.9263 130.936 51.493 131.503 50.6265L135.469 45.6605H137.369L133.336 55.2258H132.036C131.669 54.5259 131.169 54.226 129.903 54.226H107.006L107.439 52.9261L110.206 52.2262C110.939 52.0263 111.472 51.4263 111.605 50.6931L120.404 20.9972C120.571 20.4306 120.404 19.9306 119.971 19.7973L117.505 19.0307L117.871 17.7309H137.635C138.302 17.7643 138.902 17.3976 139.202 16.7977H140.335L140.402 25.5965Z" fill="white"/>
<path d="M199.327 8.16556C181.496 11.9984 163.298 13.8981 145.034 13.8981C101.807 13.8981 71.5109 7.99892 58.646 4.96599L4.58663 56.159L0.187229 56.7256L16.0517 8.39886C11.2524 10.3319 6.21974 11.6318 1.08711 12.2317C-0.212717 12.3317 -0.212717 11.6318 0.387202 11.2985C3.82007 9.63203 6.41972 6.66576 7.61955 3.06625C15.4185 4.96599 21.2844 3.49953 28.4167 0.866551L14.0187 41.5943L52.2801 0C75.4103 4.79935 98.9738 7.26568 122.571 7.36566C141.201 7.36566 157.566 4.43273 165.931 0.999864C177.763 8.03224 191.295 7.49898 199.027 6.96572C200.16 6.89907 200.36 7.93226 199.327 8.16556Z" fill="white"/>
<path d="M116.038 17.7309L115.672 19.0307L112.705 19.864C112.139 20.0306 111.739 20.4972 111.639 21.0638L102.84 50.5265C102.573 51.4263 102.373 51.9596 103.473 52.2929L105.606 52.9261L105.173 54.226H91.0749L91.5082 52.9261L93.5745 52.2929C94.4744 52.1596 95.1743 51.4597 95.341 50.5931L103.973 20.9638C104.173 20.5305 104.006 19.9973 103.54 19.7973C103.507 19.7973 103.507 19.764 103.473 19.764L101.14 18.9974L101.507 17.6976L116.038 17.7309ZM95.0077 26.7297C95.0077 32.2623 90.6083 37.1283 83.4426 36.795C82.0428 36.7283 80.643 36.5284 79.3098 36.1618C79.3098 42.9275 81.3762 49.8266 85.409 49.8266C87.8753 49.8266 88.6086 47.7602 88.9418 45.9938C88.9418 45.6938 89.2418 45.4938 89.5751 45.8604C90.7416 46.9603 91.3748 48.4934 91.3415 50.0932C91.3415 54.2593 88.7419 56.1257 84.7424 56.1257C74.7104 56.1257 74.2438 41.6943 75.8769 32.8289C75.9769 32.3289 76.1769 32.2623 76.5102 32.4623C77.9767 33.3288 79.6431 33.7288 81.3429 33.6621C84.5758 33.6621 87.642 31.0624 87.642 26.4297C87.642 21.797 83.7425 18.9308 78.0767 18.9308L68.7113 50.6931C68.6113 50.9597 68.5779 51.193 68.5779 51.4597C68.5446 51.8596 68.8112 52.1929 69.2112 52.2262L71.9108 52.9261L71.4775 54.226H57.3795L57.8127 52.9261L59.9458 52.2929C60.579 52.0929 60.9123 51.693 61.2456 50.6598L70.611 18.9308C66.5449 19.7973 64.5785 21.2971 64.5785 23.5968C64.5118 24.53 64.7451 25.4299 65.2784 26.1964C65.4117 26.3964 65.4784 26.663 65.4784 26.8963C65.4784 27.4296 65.0118 27.8962 63.7119 27.8962C61.6122 28.0295 59.8125 26.4631 59.6458 24.3634C59.6458 24.1301 59.6458 23.9301 59.6458 23.6968C59.6458 21.9304 60.7123 15.9645 76.2102 15.9645C89.3418 15.9645 94.9743 20.1973 94.9743 26.7297H95.0077ZM49.5139 24.1967L34.9825 42.0943H47.8808L49.5139 24.1967ZM57.0462 52.9595L56.6129 54.2593H43.2814L43.7147 52.9595L46.0477 52.3262C46.6809 52.1596 47.1475 51.5597 47.1142 50.9264L47.6808 44.7606H32.7161L27.8168 50.7264C27.5502 50.9597 27.3835 51.293 27.3169 51.6597C27.3169 51.9596 27.4835 52.1929 27.8835 52.2929L30.1498 52.9928L29.7166 54.2926H18.5514L19.0513 52.9928L21.3843 52.4262C22.2842 52.1596 23.0841 51.593 23.6507 50.8598L53.9133 15.2646L57.0462 14.698L54.1466 50.9931C54.1466 51.7596 54.1466 52.2929 55.0798 52.4929C55.0464 52.4595 57.0462 52.9595 57.0462 52.9595Z" fill="white"/>
</svg>
