<svg width="200" height="63" viewBox="0 0 200 63" fill="none" xmlns="http://www.w3.org/2000/svg">
<path fill-rule="evenodd" clip-rule="evenodd" d="M15.5029 62.1359H20.1553V37.2816H15.5029V62.1359ZM32.5573 61.7631H36.7243V46.0816L54.2641 62.1359V37.6544H50.1087V53.068L32.5573 37.2816V61.7631ZM63.7767 55.7437C66.0447 57.5107 68.767 58.532 71.6854 58.532C74.5282 58.532 76.5223 57.5534 76.5223 55.3922C76.5223 53.5087 75.2505 52.7709 73.0233 51.9456L69.4175 50.6932C66.0932 49.5126 63.565 47.7883 63.565 43.8252C63.565 39.5864 67.3922 37.2816 71.9689 37.2816C74.7728 37.2816 77.3282 37.9864 79.3243 39.2349V43.4388C77.2485 41.9049 74.9767 40.8485 72.0583 40.8485C69.5456 40.8485 67.668 41.7864 67.668 43.7417C67.668 45.5087 68.8466 46.2155 70.9223 46.9262L74.9398 48.3359C78.833 49.7049 80.6194 51.8272 80.6194 55.3184C80.6194 59.7107 76.7553 62.1359 71.6854 62.1359C68.3534 62.1359 65.5204 61.2039 63.7767 60.0272V55.7437ZM91.4738 62.1359H96.1243V37.2816H91.4738V62.1359ZM117.942 58.3748C123.184 58.3748 125.986 55.0116 125.986 49.7029C125.986 44.3553 123.183 41.0039 117.942 41.0039H112.757V58.3748H117.942V58.3748ZM108.524 37.2816H118.097C125.466 37.2816 130.231 42.1359 130.231 49.7029C130.231 57.2757 125.466 62.1359 118.097 62.1359H108.524V37.2816ZM153.489 37.2816V41.0039H142.233V46.9845H152.328V50.6641H142.231V58.3748H153.489V62.1359H137.984V37.2816H153.489ZM169.998 48.5359H174.614C177.346 48.5359 178.885 47.0369 178.885 44.732C178.885 42.4272 177.346 40.9262 174.614 40.9262H169.998V48.5379V48.5359ZM169.998 52.0505V62.1359H165.891V37.2816H174.691C179.709 37.2816 182.955 39.866 182.955 44.732C182.955 48.8932 181.153 51.2835 177.315 51.8971L186.047 62.1359H181.375L172.92 52.0524H170L169.998 52.0505ZM13.8777 12.7961C15.6971 12.1301 17.1146 10.132 17.1146 7.38447C17.1146 2.80583 13.8777 0.43301 8.69903 0.43301H0V25.9922H9.5068C14.6854 25.9922 17.9223 23.4524 17.9223 18.666C17.9223 15.9592 16.2233 13.5864 13.8777 12.7961ZM4.08544 11.1728V4.18058H8.66019C11.534 4.18058 13.0699 5.22136 13.0699 7.63495C13.0699 10.0485 11.532 11.1728 8.66019 11.1728H4.08544ZM4.08544 14.7534H9.42524C12.2602 14.7534 13.7961 16.167 13.7961 18.499C13.7961 20.7884 12.2583 22.2466 9.42718 22.2466H4.08738V14.7515L4.08544 14.7534ZM36.9029 26.4078C42.8505 26.4078 46.8563 22.8272 46.8563 15.835V0.43301H42.6485V15.334C42.6485 20.2466 40.6252 22.5379 36.9029 22.5379C33.1806 22.5379 31.1592 20.2466 31.1592 15.334V0.43301H26.9515V15.7922C26.9515 22.8272 30.9961 26.4078 36.9029 26.4078V26.4078ZM56.7631 24.1592C58.5029 25.4097 61.3359 26.4078 64.6524 26.4078C69.7107 26.4078 73.5534 23.8252 73.5534 19.165C73.5534 15.4602 71.7748 13.2117 67.8893 11.7553L63.8854 10.2563C61.8214 9.50874 60.6485 8.75922 60.6485 6.88544C60.6485 4.80388 62.5087 3.80583 65.0175 3.80583C67.9301 3.80583 70.1961 4.92816 72.2602 6.5534V2.09709C70.2777 0.76699 67.7282 0.0174757 64.9359 0.0174757C60.3651 0.0174757 56.5612 2.47379 56.5612 6.96893C56.5612 11.1728 59.0699 13.0039 62.3864 14.2524L65.9884 15.5845C68.2136 16.4583 69.468 17.2505 69.468 19.2485C69.468 21.5379 67.4854 22.5786 64.6524 22.5786C61.7398 22.5786 59.0291 21.4951 56.7631 19.6233V24.1592V24.1592ZM88.5884 0.43301H84.3825V25.9903H88.5884V0.43301ZM100.592 25.9592H104.647V9.33204L121.711 26.3553V0.394175H117.668V16.7379L100.592 0V25.9592V25.9592ZM148.004 0.438835V4.26602H137.08V10.4175H146.876V14.2019H137.08V22.1301H148.004V25.9981H132.955V0.438835H148.004ZM157.8 24.1417C159.54 25.3922 162.371 26.3903 165.689 26.3903C170.746 26.3903 174.59 23.8097 174.59 19.1476C174.59 15.4427 172.81 13.1961 168.926 11.7379L164.92 10.2408C162.856 9.49126 161.683 8.74175 161.683 6.86796C161.683 4.78641 163.544 3.78835 166.052 3.78835C168.965 3.78835 171.231 4.91262 173.295 6.53592V2.08155C171.313 0.749515 168.763 0 165.971 0C161.4 0 157.596 2.45631 157.596 6.95146C157.596 11.1553 160.105 12.9864 163.421 14.235L167.023 15.567C169.249 16.4408 170.503 17.233 170.503 19.2311C170.503 21.5204 168.522 22.5612 165.687 22.5612C162.775 22.5612 160.064 21.4796 157.8 19.6058V24.1417V24.1417ZM183.21 24.1417C184.95 25.3922 187.783 26.3903 191.099 26.3903C196.157 26.3903 200 23.8097 200 19.1476C200 15.4427 198.219 13.1961 194.336 11.7379L190.33 10.2408C188.268 9.49126 187.093 8.74175 187.093 6.86796C187.093 4.78641 188.955 3.78835 191.462 3.78835C194.375 3.78835 196.643 4.91262 198.705 6.53592V2.08155C196.724 0.749515 194.175 0 191.383 0C186.81 0 183.008 2.45631 183.008 6.95146C183.008 11.1553 185.517 12.9864 188.833 14.235L192.435 15.567C194.66 16.4408 195.915 17.233 195.915 19.2311C195.915 21.5204 193.932 22.5612 191.099 22.5612C188.186 22.5612 185.476 21.4796 183.21 19.6058V24.1417V24.1417Z" fill="white"/>
</svg>
