<svg width="200" height="26" viewBox="0 0 200 26" fill="none" xmlns="http://www.w3.org/2000/svg">
<path d="M179.456 25.7105C181.054 25.7105 182.449 25.5745 184.252 25.5745H193.537C195.714 25.5745 197.789 25.7105 198.537 25.7105C199.558 25.7105 200 25.2343 200 24.1119C200 23.5336 199.898 22.2222 199.898 20.8125C199.898 19.9282 200 18.8057 200 18.3636C200 17.3432 199.49 16.7309 198.537 16.7309C197.585 16.7309 197.075 17.3432 197.075 18.2426C197.075 18.6206 197.211 19.3991 197.211 20.0794C197.211 22.2562 196.259 23.0045 193.605 23.0045H188.912C186.701 23.0045 186.266 22.5283 186.266 20.3175V14.9433C186.266 13.6848 186.538 13.3787 187.661 13.3787H188.817C190.484 13.3787 191.062 13.7566 191.062 14.8073C191.062 15.1134 190.994 15.8277 190.994 16.0317C190.994 16.9501 191.504 17.4603 192.389 17.4603C193.375 17.4603 193.851 16.9161 193.851 15.8277C193.851 14.7392 193.647 13.5147 193.647 12.2562C193.647 10.9977 193.851 9.77324 193.851 8.71882C193.851 7.58503 193.375 6.98413 192.389 6.98413C191.504 6.98413 190.994 7.52834 190.994 8.44671C190.994 8.65079 191.062 9.36508 191.062 9.70522C191.062 10.7256 190.484 11.0998 188.817 11.0998H187.661C186.527 11.0998 186.266 10.7937 186.266 9.56916V5.21542C186.266 3.14059 186.674 2.76644 188.681 2.76644H193.341C195.79 2.76644 196.708 3.44671 196.708 5.28345C196.708 5.99773 196.572 6.79516 196.572 7.12018C196.572 8.07256 197.116 8.65079 198.035 8.65079C198.953 8.65079 199.546 8.07256 199.546 7.05215C199.546 6.60998 199.444 5.45351 199.444 4.60317C199.444 3.34467 199.546 2.18821 199.546 1.678C199.546 0.544218 199.07 0.0793651 198.035 0.0793651C197.082 0.0793651 195.144 0.215419 193.035 0.215419H184.252C182.449 0.215419 181.054 0.0793651 179.456 0.0793651C178.299 0.0793651 177.755 0.623583 177.755 1.60998C177.755 2.46032 178.299 3.00454 179.218 3.00454C179.596 3.00454 180.578 2.80045 181.107 2.80045C182.196 2.80045 182.619 3.44671 182.619 5.11338V20.6916C182.619 22.3583 182.211 23.0045 181.107 23.0045C180.563 23.0045 179.577 22.8005 179.218 22.8005C178.299 22.8005 177.755 23.3447 177.755 24.195C177.755 25.1814 178.299 25.7256 179.456 25.7256V25.7105ZM168.095 5.24943V19.4331C168.095 19.811 168.061 19.9433 167.891 19.9433C167.721 19.9433 167.585 19.8413 167.347 19.4331L157.483 1.67045C156.803 0.47997 156.293 0.10582 154.864 0.10582C154.218 0.10582 153.163 0.241875 152.143 0.241875C150.748 0.241875 149.66 0.0718065 148.435 0.0718065C147.279 0.0718065 146.735 0.616024 146.735 1.60242C146.735 2.45276 147.279 2.99698 148.197 2.99698C148.575 2.99698 149.524 2.7929 150.034 2.7929C151.258 2.7929 151.701 3.47317 151.701 5.24187V20.548C151.701 22.3167 151.258 22.997 150.034 22.997C149.524 22.997 148.571 22.7929 148.197 22.7929C147.279 22.7929 146.735 23.3371 146.735 24.1875C146.735 25.1738 147.279 25.7181 148.435 25.7181C150.068 25.7181 151.565 25.548 153.367 25.548C155.17 25.548 156.667 25.7181 158.299 25.7181C159.456 25.7181 160.034 25.1738 160.034 24.1875C160.034 23.3371 159.49 22.7929 158.522 22.7929C158.144 22.7929 157.196 22.997 156.686 22.997C155.461 22.997 155.019 22.3167 155.019 20.548V5.75964C155.019 5.35147 155.053 5.24943 155.257 5.24943C155.461 5.24943 155.529 5.35147 155.767 5.75964L166.073 23.7868C166.992 25.4195 167.366 25.7596 169.033 25.7596H169.339C170.767 25.7596 171.413 25.1134 171.413 23.7868V5.26833C171.413 3.53364 171.89 2.85336 173.148 2.85336C173.556 2.85336 174.407 2.98942 174.747 2.98942C174.927 3.00237 175.108 2.97577 175.278 2.91149C175.447 2.8472 175.6 2.74678 175.726 2.61723C175.852 2.48768 175.949 2.33212 176.009 2.16141C176.069 1.9907 176.091 1.80896 176.073 1.62887C176.073 0.642479 175.495 0.0982615 174.373 0.0982615C172.808 0.0982615 171.481 0.26833 169.781 0.26833C167.978 0.26833 166.447 0.0982615 164.781 0.0982615C163.647 0.0982615 163.08 0.642479 163.08 1.62887C163.08 2.47921 163.624 3.02343 164.543 3.02343C164.951 3.02343 165.869 2.81935 166.413 2.81935C167.604 2.81935 168.08 3.49962 168.08 5.26833L168.095 5.24943ZM132.585 25.7105C134.252 25.7105 135.782 25.5404 137.653 25.5404C139.524 25.5404 141.088 25.7105 142.755 25.7105C143.889 25.7105 144.49 25.1663 144.49 24.1799C144.498 23.9887 144.465 23.7978 144.394 23.6203C144.322 23.4427 144.214 23.2825 144.075 23.1504C143.937 23.0183 143.772 22.9174 143.591 22.8544C143.41 22.7915 143.218 22.7679 143.027 22.7853C142.551 22.7853 141.599 22.9894 141.054 22.9894C139.898 22.9894 139.49 22.2751 139.49 20.4044V5.38549C139.49 3.49584 139.898 2.80045 141.054 2.80045C141.599 2.80045 142.566 3.00454 143.027 3.00454C143.218 3.02197 143.41 2.99842 143.591 2.93545C143.772 2.87248 143.937 2.77156 144.075 2.63947C144.214 2.50737 144.322 2.34716 144.394 2.16959C144.465 1.99203 144.498 1.80122 144.49 1.60998C144.49 0.623583 143.878 0.0793651 142.755 0.0793651C141.088 0.0793651 139.524 0.249433 137.653 0.249433C135.782 0.249433 134.252 0.0793651 132.585 0.0793651C131.429 0.0793651 130.85 0.623583 130.85 1.60998C130.85 2.46032 131.395 3.00454 132.313 3.00454C132.755 3.00454 133.741 2.80045 134.286 2.80045C135.442 2.80045 135.85 3.51474 135.85 5.38549V20.4195C135.85 22.3091 135.442 23.0045 134.286 23.0045C133.741 23.0045 132.755 22.8005 132.313 22.8005C131.395 22.8005 130.85 23.3447 130.85 24.195C130.85 25.1814 131.429 25.7256 132.585 25.7256V25.7105ZM108.605 25.7256C110.204 25.7256 111.599 25.5896 113.401 25.5896H122.071C124.248 25.5896 126.323 25.7256 127.071 25.7256C128.125 25.7256 128.583 25.2494 128.583 24.127C128.583 23.4807 128.515 21.9841 128.515 20.3477C128.515 19.3613 128.583 18.0801 128.583 17.5586C128.583 16.5382 128.039 15.9599 127.071 15.9599C126.868 15.9434 126.664 15.9711 126.473 16.0412C126.283 16.1113 126.109 16.2221 125.965 16.3659C125.822 16.5098 125.711 16.6832 125.641 16.8741C125.57 17.065 125.543 17.2689 125.559 17.4717C125.559 17.9138 125.695 18.8322 125.695 19.6485C125.695 22.1655 124.743 23.0159 121.954 23.0159H118.314C115.899 23.0159 115.389 22.4717 115.389 20.0567V5.4195C115.389 3.52986 115.831 2.80045 117.09 2.80045C117.634 2.80045 118.621 3.00454 119.063 3.00454C119.981 3.00454 120.574 2.46032 120.574 1.60998C120.574 0.623583 119.996 0.0793651 118.84 0.0793651C117.105 0.0793651 115.54 0.249433 113.568 0.249433C111.731 0.249433 110.234 0.0793651 108.602 0.0793651C107.445 0.0793651 106.901 0.623583 106.901 1.60998C106.901 2.46032 107.445 3.00454 108.364 3.00454C108.741 3.00454 109.69 2.80045 110.2 2.80045C111.334 2.80045 111.765 3.44671 111.765 5.11338V20.6916C111.765 22.3583 111.323 23.0045 110.2 23.0045C109.69 23.0045 108.738 22.8005 108.364 22.8005C107.445 22.8005 106.901 23.3447 106.901 24.195C106.901 25.1814 107.445 25.7256 108.602 25.7256H108.605ZM92.8231 23.1406C89.3197 23.1406 88.7415 22.7324 88.7415 20.2834V4.97732C88.7415 3.00454 89.3197 2.6644 92.7891 2.6644C98.9116 2.6644 101.701 5.89569 101.701 12.9705C101.701 20.0454 99.0174 23.1406 92.8231 23.1406V23.1406ZM93.0612 25.7596C101.293 25.7596 105.408 21.4399 105.408 12.8005C105.408 4.22902 101.395 0.0453515 93.1292 0.0453515C91.4966 0.0453515 88.0612 0.215419 87.1088 0.215419C85.2192 0.215419 83.6735 0.0793651 81.9388 0.0793651C80.805 0.0793651 80.2381 0.589569 80.2381 1.60998C80.2381 2.46032 80.7823 3.00454 81.7007 3.00454C82.0786 3.00454 83.0612 2.80045 83.5903 2.80045C84.6788 2.80045 85.102 3.44671 85.102 5.11338V20.6916C85.102 22.3583 84.6939 23.0045 83.5903 23.0045C83.0461 23.0045 82.0597 22.8005 81.7007 22.8005C80.7823 22.8005 80.2381 23.3447 80.2381 24.195C80.2381 25.2154 80.8163 25.7256 81.9388 25.7256C83.6735 25.7256 85.2041 25.5896 87.1088 25.5896C88.0612 25.5896 91.4966 25.7596 93.0612 25.7596ZM61.9803 13.7868C61.3681 13.7868 61.2245 13.5147 61.5042 12.7664L64.4633 4.29705C64.5994 3.91912 64.6674 3.82086 64.8715 3.82086C65.0756 3.82086 65.1096 3.9229 65.2494 4.29705L68.2086 12.7664C68.4807 13.5223 68.3447 13.7868 67.7324 13.7868H61.9803ZM74.3953 20.2494L67.8307 2.10884C67.2184 0.442177 66.8103 0 65.1852 0H64.743C63.0763 0 62.7022 0.442177 62.0975 2.10884L55.4989 20.2494C54.7166 22.4263 54.1043 22.7664 52.7438 22.8345C51.8254 22.9025 51.3492 23.3787 51.3492 24.263C51.3492 25.2494 51.8934 25.7256 52.9819 25.7256C54.2744 25.7256 55.4308 25.5896 56.9274 25.5896C58.5941 25.5896 60.1247 25.7256 61.6553 25.7256C62.7438 25.7256 63.322 25.1814 63.322 24.195C63.322 23.3447 62.7778 22.8005 61.8594 22.8005C61.5193 22.8005 60.9751 22.9365 60.2948 22.9365C59.161 22.9365 58.5941 22.4943 58.5941 21.61C58.6182 21.1314 58.7217 20.6601 58.9002 20.2154L59.9546 17.2562C60.1247 16.746 60.3968 16.4399 60.941 16.4399H68.7075C68.9516 16.4284 69.1918 16.5043 69.385 16.6539C69.5782 16.8035 69.7119 17.017 69.7619 17.2562L70.8163 20.2154C70.9949 20.6601 71.0983 21.1314 71.1224 21.61C71.1224 22.4943 70.5442 22.9365 69.3878 22.9365C68.7415 22.9365 68.2313 22.8005 67.876 22.8005C67.6836 22.7801 67.489 22.8015 67.3057 22.8634C67.1223 22.9253 66.9545 23.0261 66.8138 23.159C66.673 23.2918 66.5627 23.4535 66.4903 23.633C66.418 23.8125 66.3853 24.0055 66.3946 24.1988C66.3946 25.1852 67.0068 25.7294 68.0612 25.7294C69.6258 25.7294 71.1565 25.5933 72.9252 25.5933C74.3878 25.5933 75.6122 25.7294 76.9388 25.7294C78.0272 25.7294 78.5714 25.2532 78.5714 24.2668C78.5714 23.3825 78.0952 22.9063 77.1769 22.8382C75.7823 22.7702 75.1701 22.4301 74.3878 20.2532L74.3953 20.2494ZM28.3673 25.7105C29.966 25.7105 31.3605 25.5745 33.1633 25.5745H42.449C44.6258 25.5745 46.7007 25.7105 47.449 25.7105C48.4694 25.7105 48.9116 25.2343 48.9116 24.1119C48.9116 23.5336 48.8095 22.2222 48.8095 20.8125C48.8095 19.9282 48.9116 18.8057 48.9116 18.3636C48.9116 17.3432 48.4014 16.7309 47.449 16.7309C46.4966 16.7309 45.9864 17.3432 45.9864 18.2426C45.9864 18.6206 46.1224 19.3991 46.1224 20.0794C46.1224 22.2562 45.1701 23.0045 42.517 23.0045H37.8231C35.6122 23.0045 35.1776 22.5283 35.1776 20.3175V14.9433C35.1776 13.6848 35.4497 13.3787 36.5722 13.3787H37.7286C39.3953 13.3787 39.9735 13.7566 39.9735 14.8073C39.9735 15.1134 39.9055 15.8277 39.9055 16.0317C39.9055 16.9501 40.4157 17.4603 41.3001 17.4603C42.2865 17.4603 42.7627 16.9161 42.7627 15.8277C42.7627 14.7392 42.5586 13.5147 42.5586 12.2562C42.5586 10.9977 42.7627 9.77324 42.7627 8.71882C42.7627 7.58503 42.2865 6.98413 41.3001 6.98413C40.4157 6.98413 39.9055 7.52834 39.9055 8.44671C39.9055 8.65079 39.9735 9.36508 39.9735 9.70522C39.9735 10.7256 39.3953 11.0998 37.7286 11.0998H36.5646C35.4308 11.0998 35.1701 10.7937 35.1701 9.56916V5.21542C35.1701 3.14059 35.5782 2.76644 37.585 2.76644H42.2449C44.6939 2.76644 45.6122 3.44671 45.6122 5.28345C45.6122 5.99773 45.4762 6.79516 45.4762 7.12018C45.4762 8.07256 46.0204 8.65079 46.9388 8.65079C47.8571 8.65079 48.4505 8.07256 48.4505 7.05215C48.4505 6.60998 48.3484 5.45351 48.3484 4.60317C48.3484 3.34467 48.4505 2.18821 48.4505 1.678C48.4505 0.544218 47.9743 0.0793651 46.9388 0.0793651C45.9864 0.0793651 44.0476 0.215419 41.9388 0.215419H33.1633C31.3681 0.215419 29.966 0.0793651 28.3673 0.0793651C27.2109 0.0793651 26.6667 0.623583 26.6667 1.60998C26.6667 2.46032 27.2109 3.00454 28.1293 3.00454C28.5072 3.00454 29.4898 2.80045 30.0189 2.80045C31.1073 2.80045 31.5306 3.44671 31.5306 5.11338V20.6916C31.5306 22.3583 31.1224 23.0045 30.0189 23.0045C29.4747 23.0045 28.5072 22.8005 28.1293 22.8005C27.2109 22.8005 26.6667 23.3447 26.6667 24.195C26.6667 25.1814 27.2109 25.7105 28.3673 25.7105ZM12.585 23.1406C9.08163 23.1406 8.5034 22.7324 8.5034 20.2834V4.97732C8.5034 3.00454 9.07029 2.65684 12.551 2.65684C18.6735 2.65684 21.4626 5.88813 21.4626 12.963C21.4626 20.0378 18.7755 23.1406 12.585 23.1406ZM12.8231 25.7596C21.0544 25.7596 25.1701 21.4399 25.1701 12.8005C25.1701 4.22902 21.164 0.0453515 12.8912 0.0453515C11.2585 0.0453515 7.82313 0.215419 6.87075 0.215419C4.96599 0.215419 3.43537 0.0793651 1.70068 0.0793651C0.578231 0.0793651 0 0.589569 0 1.60998C0 2.46032 0.544218 3.00454 1.46258 3.00454C1.84051 3.00454 2.82313 2.80045 3.35223 2.80045C4.44067 2.80045 4.86395 3.44671 4.86395 5.11338V20.6916C4.86395 22.3583 4.45578 23.0045 3.35223 23.0045C2.80801 23.0045 1.84051 22.8005 1.46258 22.8005C0.544218 22.8005 0 23.3447 0 24.1988C0 25.2154 0.578231 25.7105 1.70068 25.7105C3.43537 25.7105 4.96599 25.5745 6.87075 25.5745C7.82313 25.5745 11.2585 25.7445 12.8231 25.7445" fill="white"/>
</svg>
