<svg width="200" height="49" viewBox="0 0 200 49" fill="none" xmlns="http://www.w3.org/2000/svg">
<path d="M193.947 2.29489C194.836 2.29489 195.711 1.89329 195.711 0H196.185V15.5479H195.711C195.711 7.22891 190.706 0.60241 183.003 0.60241C176.922 0.60241 173.537 4.6615 173.537 9.32301C173.537 17.2978 183.204 18.3878 190.749 21.9736C195.611 24.2685 199.943 27.7108 199.943 34.5668C199.943 43.4882 192.771 48.6231 184.251 48.6231C177.424 48.6231 173.91 45.5823 170.869 45.5823C170.54 45.5459 170.207 45.584 169.895 45.6936C169.582 45.8033 169.299 45.9818 169.064 46.2159C168.83 46.45 168.652 46.7337 168.542 47.0461C168.433 47.3585 168.394 47.6916 168.431 48.0206H167.9V31.1819H168.431C168.362 33.3449 168.721 35.5003 169.486 37.5245C170.252 39.5488 171.409 41.4021 172.892 42.9783C174.375 44.5545 176.154 45.8226 178.128 46.71C180.102 47.5974 182.231 48.0867 184.395 48.1497C190.476 48.1497 194.191 43.7608 194.191 37.8801C194.191 29.7619 187.02 27.9403 181.01 25.6311C172.404 22.3035 168.847 18.6604 168.847 12.5645C168.847 4.58979 174.928 0 182.358 0C187.765 0 191.695 2.29489 193.919 2.29489H193.947ZM107.774 0.645439H91.136V1.24785H91.7527C94.7935 1.24785 95.8692 2.26621 95.8692 5.37866V43.3591C95.8692 46.4716 94.7935 47.4756 91.7527 47.4756H91.136V47.9776H107.774C121.845 47.9776 131.038 38.4395 131.038 24.2972C131.038 10.1549 121.845 0.645439 107.774 0.645439ZM107.501 47.4469H106.899C103.858 47.4469 102.768 46.4429 102.768 43.3305V5.40734C102.768 2.29489 103.858 1.27653 106.899 1.27653H107.501C120.009 1.27653 123.523 11.833 123.523 24.3976C123.523 35.8721 120.654 47.4756 107.501 47.4756V47.4469ZM165.519 31.2536H164.974C164.501 42.9575 159.968 47.5473 149.197 47.5473H146.83C143.789 47.5473 142.699 46.529 142.699 43.4165V23.3362H146.357C152.094 23.3362 155.752 25.7745 155.752 33.3764H156.297V13.4538H155.752C155.752 21.0843 152.108 22.7768 146.357 22.7768H142.699V5.46472C142.699 2.36661 143.789 1.34825 146.83 1.34825H149.197C158.118 1.34825 163.669 5.06311 163.669 15.6913H164.2V0.731497H131.211V1.34825H131.827C134.868 1.34825 135.944 2.36661 135.944 5.46472V43.4165C135.944 46.529 134.868 47.5473 131.827 47.5473H131.211V48.0924H165.634L165.519 31.2536ZM68.3161 43.4165V37.0625C68.3161 25.8319 62.1629 22.9202 51.8933 22.8485L51.7499 22.9776H54.3316C60.5565 22.9776 68.9902 20.7258 68.9902 12.5645C68.9902 4.40333 60.2697 0.645439 53.2415 0.645439H35.3987V1.24785H35.7286C38.7694 1.24785 39.8594 2.26621 39.8594 5.37866V43.3591C39.8594 46.4716 38.7694 47.4756 35.7286 47.4756H35.1262V47.9776H51.8216V47.4326H50.8032C47.7625 47.4326 46.6868 46.4286 46.6868 43.3161V23.2358H51.1474C58.5198 23.2358 61.288 24.7992 61.288 34.9541V37.7223C61.3597 45.4389 63.5829 48.0063 68.9902 48.0063H72.031V47.4613H71.2851C68.8468 47.4613 68.4165 45.8405 68.4165 43.4022L68.3161 43.4165ZM51.42 22.7194H46.6868V5.40734C46.6868 2.29489 47.7625 1.27653 50.8032 1.27653H52.0224C58.9931 1.27653 62.2347 4.73322 62.2347 12.0338C62.2347 19.3345 58.9214 22.7194 51.42 22.7194ZM19.4779 22.9203C26.1331 22.8485 33.3046 20.0086 33.3046 12.3064C33.3046 4.94836 26.7068 0.645439 18.0579 0.645439H0V1.24785H0.60241C3.65749 1.24785 4.73322 2.26621 4.73322 5.37866V43.3591C4.73322 46.4716 3.65749 47.4756 0.60241 47.4756H0V47.9776H18.9616C27.2088 47.9776 35.7286 45.0086 35.7286 35.9438C35.7286 26.8789 27.5674 23.3936 19.4779 22.9203V22.9203ZM11.6322 22.7194V5.40734C11.6322 2.29489 12.708 1.27653 15.7487 1.27653H16.7671C23.4653 1.27653 26.506 4.58979 26.506 11.9621C26.506 19.3345 23.4653 22.7194 16.8962 22.7194H11.6322ZM17.7854 47.4756H15.7487C12.708 47.4756 11.6322 46.4716 11.6322 43.3591V23.2788H16.8962C24.8135 23.2788 28.3706 27.1515 28.3706 35.6139C28.3706 43.7894 25.0574 47.5043 17.7567 47.5043L17.7854 47.4756ZM73.5657 47.9776H89.9312V47.4326H89.3144C86.2737 47.4326 85.1979 46.4286 85.1979 43.3161V5.40734C85.1979 2.29489 86.2737 1.27653 89.3144 1.27653H89.9312V0.645439H73.5657V1.24785H74.1681C77.2088 1.24785 78.2989 2.26621 78.2989 5.37866V43.3591C78.2989 46.4716 77.2088 47.4756 74.1681 47.4756H73.5657V47.9776Z" fill="white"/>
</svg>
