<svg width="200" height="35" viewBox="0 0 200 35" fill="none" xmlns="http://www.w3.org/2000/svg">
<path d="M14.5644 34.0741C19.8385 34.0741 23.0444 32.2919 27.1822 28.1585C30.1037 25.2415 32.1733 21.3111 32.4563 16.3289H17.5259L14.2 19.6504V23.4578H26.0474C25.317 24.5941 22.76 26.7007 18.2163 26.7007C12.0089 26.7007 7.18074 22 7.18074 15.437C7.18074 12.5185 7.99259 10.4933 9.16889 9.31852C10.3452 8.1437 12.0089 7.41481 14.6459 7.41481C17.6889 7.41481 20.9348 8.50815 23.6533 10.7778L27.5881 7.13037L28.0341 5.91556C25.6815 4.25481 21.8267 2.63407 18.2163 2.63407C11.4415 2.63407 5.88296 7.65778 5.88296 15.3156C5.88296 22.7304 11.36 27.9156 18.2163 27.9156C25.4385 27.9156 28.5615 23.2163 29.5348 18.84H18.3378V17.4622H31.1985C30.5096 23.2163 26.3304 29.3733 18.2163 29.3733C10.2637 29.3733 4.21926 23.2548 4.21926 15.3141C4.21926 6.88741 11.0356 1.17482 18.2163 1.17482C22.3941 1.17482 26.1274 2.83556 28.4815 4.57778L28.8874 3.32296C26.4933 1.74222 22.8415 0 18.2963 0C13.4681 0 9.53333 2.02667 6.24593 5.30815C2.19259 9.35852 0 13.9778 0 19.1644C0 27.997 7.26222 34.0741 14.5644 34.0741ZM39.1911 0.688889H37.9733L34.323 4.33482V33.3867H47.7926L51.3215 29.8607V28.7259H39.1911V0.688889ZM41.9496 0.688889H40.7333V27.3481H51.3215V26.2148H41.9496V0.688889ZM68.3615 5.46963L61.7896 21.8785H74.6104L68.3615 5.46963ZM68.9289 20.7437H63.4519L66.2919 13.7363L68.9289 20.7437ZM60.9378 27.6326H71.4859L73.677 33.5067H76.8815L80.5333 29.8607L68.9289 0.0414813H67.7941L62.9659 4.90222L51.4844 33.5067H56.4326L60.0844 29.8607L60.9378 27.6326ZM78.7896 28.7259H77.1659L75.1363 23.2563H61.2622L59.1926 28.7259H57.6104L68.28 1.70222H68.443L78.7896 28.7259ZM86.9022 2.47111H87.0237L99.723 19.7304L112.301 2.47111H112.422V28.7259H110.961V6.92889L99.723 22.203H99.683L88.3644 6.88741V28.7259H86.9022V2.47111ZM85.6859 0.405926L82.0341 4.05037V33.5067H85.9304L89.5807 29.8607L89.5393 17.2593L96.883 26.9837H97.6948L106.093 15.477V33.5067H109.988L113.639 29.8607V0.405926H112.462L106.742 4.49778L98.3437 15.8015L86.8207 0.405926H85.6859ZM141.553 18.84C141.553 21.3926 140.862 23.3778 139.563 24.6741C138.265 25.9704 136.561 26.7007 134.006 26.7007C127.31 26.7007 122.847 21.717 122.847 15.1526C122.847 12.357 123.619 10.2504 124.917 8.95407C126.215 7.65778 128.163 6.92889 130.841 6.92889C137.007 6.92889 141.553 11.6281 141.553 18.84V18.84ZM119.884 15.2741C119.884 7.45481 126.133 1.17482 133.881 1.17482C141.753 1.17482 147.879 7.33333 147.879 15.2741C147.879 23.0948 141.631 29.3748 133.881 29.3748C126.01 29.3748 119.884 23.2163 119.884 15.2741V15.2741ZM121.548 15.2741C121.548 22.4859 126.864 27.9156 133.881 27.9156C140.899 27.9156 146.215 22.4459 146.215 15.2741C146.215 8.06222 140.901 2.63407 133.881 2.63407C126.862 2.63407 121.548 8.06222 121.548 15.2741V15.2741ZM149.136 15.1941C149.136 6.68593 142.401 0 133.963 0C129.135 0 125.2 2.02667 121.914 5.30815C117.856 9.35852 115.665 13.9378 115.665 19.1644C115.667 27.997 123.052 34.0741 130.556 34.0741C135.222 34.0741 139.077 32.2919 142.566 28.8074C147.759 23.6222 149.138 19.4474 149.138 15.1926L149.136 15.1941ZM169.219 30.0622C171.53 27.7541 173.803 24.5126 173.803 20.0963V0.688889H172.587V20.0148C172.587 25.403 169.381 29.2933 164.107 29.2933C158.833 29.2933 155.628 25.323 155.628 20.0148V0.688889H154.41L150.759 4.33482V23.0963C150.759 29.0104 154.695 33.7111 160.862 33.7111C164.067 33.7111 166.501 32.7778 169.218 30.0637L169.219 30.0622ZM165.203 25.8904C164.756 26.3348 164.107 26.5793 163.215 26.5793C162.16 26.5793 161.105 26.1733 160.212 25.323C159.116 24.2696 158.387 22.6489 158.387 19.8119V0.688889H157.169V19.8933C157.169 24.6341 159.684 27.8341 164.107 27.8341C168.529 27.8341 171.044 24.6341 171.044 19.9333V0.688889H169.827L166.216 4.33482V21.4326C166.216 24.1881 165.812 25.2815 165.203 25.8904V25.8904ZM182.85 3.20148V19.123H186.015C191.695 19.123 195.508 16.4504 195.508 10.8993C195.508 6.11852 191.858 3.20148 186.339 3.20148H182.85ZM184.028 17.9896V7.5363H185.203C187.193 7.5363 188.652 8.26519 189.667 9.31852C190.664 10.3506 191.217 11.7323 191.207 13.1674C191.207 14.5452 190.843 15.8815 190.113 16.6519C189.261 17.5437 188.369 17.9896 186.178 17.9896H184.028ZM195.874 28.7259H193.683L183.378 20.3793H182.85V28.7259H181.31V1.82222H186.381C192.547 1.82222 197.05 5.34815 197.05 10.8178C197.05 17.0578 192.304 20.3793 185.975 20.3793H185.487L195.874 28.7259ZM184.067 27.5111L191.33 33.5067H195.55L199.201 29.8607L190.56 22.9319C192.547 21.4326 194.859 19.2444 196.159 17.5022C196.766 16.6933 198.348 14.3837 198.348 10.8178C198.348 4.65926 193.561 0.688889 186.422 0.688889H180.092L176.44 4.33482V33.5067H180.416L184.068 29.8607L184.067 27.5111Z" fill="white"/>
</svg>
