<svg width="200" height="47" viewBox="0 0 200 47" fill="none" xmlns="http://www.w3.org/2000/svg">
<path d="M199.959 0.623956C200.075 0.224624 199.937 0 199.627 0H191.913C191.601 0 191.402 0.204657 191.402 0.482941C191.402 0.730028 191.54 0.866052 191.723 0.866052H195.242L191.12 14.4084C190.923 11.9176 189.367 10.1019 186.81 10.1019C180.739 10.1019 174.215 17.7341 174.215 24.982C174.215 30.6687 177.398 33.2045 180.313 33.2045C182.726 33.2045 185.359 31.2053 187.397 27.2444C186.628 31.3363 188.332 33.2045 190.982 33.2045C192.941 33.2045 194.93 31.7407 197.567 25.3351C197.701 25.0107 197.541 24.791 197.216 24.791C196.982 24.791 196.821 24.9046 196.705 25.1716C194.255 30.7997 192.857 31.9154 191.907 31.9154C191.093 31.9154 190.631 31.2402 191.525 28.2303L199.959 0.623956ZM189.964 18.2495L188.946 21.5814C186.711 28.9054 182.928 32.2174 180.617 32.2174C179.014 32.2174 178.233 31.0206 178.233 28.4537C178.233 20.6742 183.373 11.0989 187.524 11.0989C189.557 11.1002 191.226 14.0527 189.964 18.2495Z" fill="white"/>
<path d="M172.878 19.0493C172.878 13.7682 169.193 10.1018 165.186 10.1018C158.469 10.1018 152.685 17.0876 152.685 24.2581C152.685 29.5368 156.369 33.2044 160.377 33.2044C167.094 33.2044 172.878 26.2198 172.878 19.0493ZM156.663 27.6874C156.663 23.6729 158.726 16.2727 161.796 12.8235C162.851 11.6342 164.063 10.9666 165.412 10.9666C167.489 10.9666 168.9 12.2844 168.9 15.6188C168.9 19.6321 166.835 27.0335 163.767 30.4827C162.71 31.6707 161.499 32.3396 160.15 32.3396C158.074 32.3384 156.663 31.0218 156.663 27.6874Z" fill="white"/>
<path d="M138.736 33.2044C145.452 33.2044 151.237 26.2199 151.237 19.0506C151.237 13.7695 147.552 10.1031 143.542 10.1031C136.827 10.1031 131.041 17.0889 131.041 24.2594C131.041 29.5368 134.726 33.2044 138.736 33.2044ZM140.152 12.8235C141.209 11.6343 142.422 10.9666 143.771 10.9666C145.845 10.9666 147.259 12.2844 147.259 15.6189C147.259 19.6321 145.193 27.0335 142.126 30.4827C141.069 31.6708 139.855 32.3396 138.507 32.3396C136.432 32.3396 135.019 31.0218 135.019 27.6874C135.019 23.6729 137.085 16.2728 140.152 12.8235Z" fill="white"/>
<path d="M127.333 10.2278C125.831 10.2278 124.8 11.4396 124.8 12.7474C124.8 14.1101 125.972 15.2008 127.286 15.2008C128.196 15.2008 128.923 14.6654 129.263 14.0477C129.317 14.4084 129.357 14.7752 129.357 15.1633C129.357 22.8917 122.679 32.0239 118.569 32.0239C117.048 32.0239 116.027 31.0143 117.382 27.1221L122.459 10.6696H117.835L114.899 20.2436C112.371 28.2939 108.623 32.0226 106.391 32.0226C105.012 32.0226 104.264 30.9719 105.283 27.6624L110.248 11.2898C110.365 10.8892 110.224 10.6684 109.917 10.6684H102.502C102.192 10.6684 101.993 10.8705 101.993 11.1476C101.993 11.3946 102.13 11.5307 102.313 11.5307H105.532L101.388 25.0743C99.7556 30.3829 102.228 33.2044 105.884 33.2044C108.505 33.2044 111.23 30.5002 113.184 26.432C112.504 30.5975 114.605 33.2044 117.694 33.2044C124.384 33.2044 130.413 22.2665 130.413 14.9687C130.413 11.4371 129.097 10.2278 127.333 10.2278Z" fill="white"/>
<path d="M76.0952 24.791C75.8631 24.791 75.6996 24.9046 75.5835 25.1716C73.1351 30.7997 71.7362 31.9154 70.7853 31.9154C69.9717 31.9154 69.5112 31.2402 70.4047 28.2303L78.8393 0.623956C78.9554 0.224624 78.8169 0 78.5061 0H71.091C70.7791 0 70.5831 0.204657 70.5831 0.482941C70.5831 0.730028 70.7204 0.866052 70.9014 0.866052H74.1235L66.3664 26.2399C65.0998 30.8858 66.7833 33.2045 69.8569 33.2045C71.8198 33.2045 73.814 31.7407 76.4458 25.3351C76.5769 25.0107 76.4184 24.791 76.0952 24.791Z" fill="white"/>
<path d="M64.0678 24.791C63.8345 24.791 63.6697 24.9046 63.5549 25.1716C61.1203 30.806 59.7076 31.9154 58.7555 31.9154C57.9418 31.9154 57.4826 31.2402 58.3773 28.2303L66.8095 0.623956C66.9255 0.224624 66.7883 0 66.4775 0H59.0637C58.7517 0 58.5533 0.204657 58.5533 0.482941C58.5533 0.730028 58.6906 0.866052 58.8715 0.866052H62.0936L54.3391 26.2399C53.0712 30.8858 54.7559 33.2045 57.832 33.2045C59.795 33.2045 61.7829 31.7394 64.4185 25.3351C64.5508 25.0107 64.3898 24.791 64.0678 24.791Z" fill="white"/>
<path d="M45.3454 10.1018C38.6304 10.1018 32.8463 17.0876 32.8463 24.2581C32.8463 29.5368 36.5314 33.2044 40.5397 33.2044C47.256 33.2044 53.0413 26.2198 53.0413 19.0506C53.04 13.7682 49.355 10.1018 45.3454 10.1018ZM43.929 30.4815C42.872 31.6695 41.6603 32.3384 40.3113 32.3384C38.2348 32.3384 36.8247 31.0206 36.8247 27.6861C36.8247 23.6716 38.8875 16.2715 41.9548 12.8223C43.0118 11.633 44.226 10.9654 45.575 10.9654C47.6503 10.9654 49.0592 12.2832 49.0592 15.6176C49.0592 19.6321 46.9964 27.0322 43.929 30.4815Z" fill="white"/>
<path d="M31.1866 31.7778H27.1359L36.5838 0.865781H40.5035C40.8155 0.865781 41.0139 0.661122 41.0139 0.382838C41.0139 0.135751 40.8754 0.000976562 40.6944 0.000976562H27.9208C27.6088 0.000976562 27.4116 0.205636 27.4116 0.48392C27.4116 0.731007 27.5502 0.867028 27.7299 0.867028H31.6234L27.1309 15.5624H14.331L18.821 0.867028H22.6022C22.9142 0.867028 23.1126 0.662372 23.1126 0.384087C23.1126 0.137 22.9753 0.00222617 22.7931 0.00222617H10.0182C9.70626 0.00222617 9.50785 0.206883 9.50785 0.485167C9.50785 0.732254 9.64512 0.868275 9.82731 0.868275H13.8593L4.41012 31.7753H0.510397C0.198419 31.7753 0 31.9775 0 32.2595C0 32.5054 0.139767 32.6401 0.319466 32.6401H13.0931C13.4051 32.6401 13.6047 32.438 13.6047 32.1572C13.6047 31.9113 13.4662 31.7753 13.2865 31.7753H9.37432L14.0665 16.421H26.8676L22.1742 31.7778H18.4117C18.101 31.7778 17.9038 31.9775 17.9038 32.2595C17.9038 32.5054 18.0411 32.6401 18.2233 32.6401H30.9969C31.3089 32.6401 31.5048 32.438 31.5048 32.1572C31.5048 31.9113 31.3675 31.7778 31.1866 31.7778Z" fill="white"/>
<path d="M95.2707 10.6696L93.1455 17.5781C93.0319 17.9487 92.5215 19.586 92.4017 19.9267C89.7237 28.1679 86.3069 31.7881 84.0307 32.0002C83.8648 32.0164 83.7038 32.0139 83.5528 31.9965C82.3099 31.8505 81.7882 30.6762 82.4958 28.2265L87.6072 11.2899C87.6572 11.1201 87.6235 11.0053 87.5536 10.9467C87.5511 10.7657 86.9933 10.6684 86.8136 10.6684H80.1759C80.0686 10.6684 79.6655 10.7008 79.6069 10.7595C79.4534 10.8181 79.3523 10.9642 79.3523 11.1476C79.3523 11.2574 79.391 11.3335 79.4559 11.3697C79.4908 11.4733 79.9238 11.5257 80.0187 11.5257H82.6705L82.8153 11.7753L78.7346 25.0468C77.141 30.343 79.5195 33.0809 83.0174 33.1932C83.1884 33.1982 83.3606 33.1957 83.5341 33.1807C85.8377 33.0148 88.3373 30.8022 90.3701 26.6704C90.3863 26.6417 90.3664 26.729 90.3814 26.6978L87.0145 37.5846C85.3535 43.1004 83.2782 45.0159 80.9783 45.2505C80.5104 45.3005 80.0511 45.2992 79.6056 45.258C77.8997 45.1045 76.7304 44.5417 76.0428 43.6557C76.5345 43.8204 77.1086 43.8442 77.6639 43.6744C78.3739 43.4386 78.9143 42.912 79.1689 42.2269C79.3548 41.7215 79.3822 41.1699 79.2312 40.6333C79.0179 39.8633 78.4313 39.2394 77.6651 38.9835C77.1984 38.83 76.698 38.8188 76.2088 38.9523C75.3465 39.1857 74.6302 39.8845 74.3931 40.8853C74.2895 41.3221 74.2733 41.7851 74.3494 42.2605C74.6889 44.3832 76.824 45.9781 79.8053 46.1603C80.1148 46.1802 80.4317 46.1865 80.7537 46.1765C85.2874 46.0467 89.8185 43.6507 92.1896 35.8837L99.8979 10.6696H95.2707Z" fill="white"/>
<path d="M116.04 42.0222L116.656 40.0056H111.859L112.439 38.1262H118.446L119.072 36.0822H110.243L107.204 46.0305H116.03L116.651 43.9877H110.627L111.235 42.0222H116.04Z" fill="white"/>
<path d="M103.788 36.0822H98.0897L95.0486 46.0305H97.8564L98.9009 42.6137H101.17L102.676 46.0305H105.637L103.86 42.3379C105.537 42.021 106.591 41.1774 107.006 39.7747L107.082 39.5301C107.704 37.4998 106.653 36.0822 103.788 36.0822ZM104.241 39.3055L104.215 39.3929C103.906 40.3962 103.181 40.7331 102.039 40.7331H99.4762L100.325 37.9503H103.108C104.157 37.9503 104.51 38.4207 104.241 39.3055Z" fill="white"/>
<path d="M150.921 36.0822H145.222L142.181 46.0305H144.989L146.034 42.6137H148.301L149.809 46.0305H152.769L150.992 42.3379C152.667 42.021 153.723 41.1774 154.14 39.7747L154.214 39.5301C154.837 37.4998 153.786 36.0822 150.921 36.0822ZM151.324 39.3055L151.298 39.3929C150.991 40.3962 150.316 40.7331 149.17 40.7331H146.607L147.458 37.9503H150.24C151.289 37.9503 151.595 38.4207 151.324 39.3055Z" fill="white"/>
<path d="M184.741 36.0822H179.044L176.002 46.0305H178.812L179.855 42.6137H182.123L183.63 46.0305H186.59L184.815 42.3379C186.492 42.021 187.544 41.1774 187.962 39.7747L188.037 39.5301C188.654 37.4998 187.607 36.0822 184.741 36.0822ZM185.193 39.3055L185.165 39.3929C184.861 40.3962 184.134 40.7331 182.994 40.7331H180.428L181.278 37.9503H184.06C185.112 37.9503 185.465 38.4207 185.193 39.3055Z" fill="white"/>
<path d="M173.853 42.0222L174.467 40.0056H169.671L170.25 38.1262H176.256L176.883 36.0822H168.058L165.013 46.0305H173.84L174.462 43.9877H168.438L169.047 42.0222H173.853Z" fill="white"/>
<path d="M126.47 36.0822H121.238L118.196 46.0305H121.004L121.96 42.9032H125.182C127.931 42.9032 129.302 41.9823 129.914 39.9769L130.024 39.62C130.634 37.6271 129.639 36.0822 126.47 36.0822ZM127.144 39.4715L127.077 39.6911C126.792 40.632 126.078 41.0239 124.889 41.0239H122.534L123.472 37.9503H125.979C127.169 37.9503 127.481 38.3708 127.144 39.4715Z" fill="white"/>
<path d="M166.14 36.0822H156.297L155.671 38.1262H159.331L156.913 46.0305H159.737L162.156 38.1262H165.517L166.14 36.0822Z" fill="white"/>
<path d="M137.665 35.8688C134.222 35.8688 132.329 37.0256 131.456 39.8708L131.095 41.0651C130.054 44.4594 131.958 46.2439 135.188 46.2439C138.631 46.2439 140.525 45.0859 141.397 42.2406L141.759 41.0476C142.799 37.6533 140.896 35.8688 137.665 35.8688ZM139.161 40.4149L138.672 41.9848C138.233 43.4224 137.354 44.1437 135.737 44.1437C133.955 44.1437 133.239 43.194 133.691 41.699L134.179 40.1267C134.619 38.6903 135.498 37.969 137.116 37.969C138.897 37.969 139.615 38.9187 139.161 40.4149Z" fill="white"/>
<path d="M92.2494 7.5461L93.1828 4.49371H96.1191L95.1844 7.5461H97.3945L99.7006 0.0012207H97.4918L96.6083 2.88515H93.6757L94.5555 0.0012207H92.3455L90.0393 7.5461H92.2494Z" fill="white"/>
<path d="M84.1356 7.5461H86.3419L88.1514 1.63224H90.5861L91.0865 0.0012207H83.6801L83.1797 1.63224H85.9451L84.1356 7.5461Z" fill="white"/>
<path d="M105.768 7.5461L106.266 5.91758H101.817L102.229 4.58855H105.873L106.366 2.97874H102.727L103.142 1.63224H107.573L108.074 0.0012207H101.423L99.1167 7.5461H105.768Z" fill="white"/>
</svg>
