<?xml version="1.0" encoding="UTF-8"?>
<svg width="242px" height="201px" viewBox="0 0 242 201" version="1.1" xmlns="http://www.w3.org/2000/svg" xmlns:xlink="http://www.w3.org/1999/xlink">
    <!-- Generator: Sketch 47.1 (45422) - http://www.bohemiancoding.com/sketch -->
    <title>logo</title>
    <desc>Created with Sketch.</desc>
    <defs></defs>
    <g id="Page-1" stroke="none" stroke-width="1" fill="none" fill-rule="evenodd">
        <g id="logo-redraw" transform="translate(-839.000000, -436.000000)" fill="#D2808D">
            <g id="logo" transform="translate(839.000000, 436.000000)">
                <g id="ICON">
                    <polyline id="I" points="25.176 5.151 25.176 141.667 32.604 141.667 32.604 143.675 0.081 143.675 0.081 141.667 7.308 141.667 7.308 5.151 0.081 5.151 0.081 3.143 32.604 3.143 32.604 5.151 25.176 5.151"></polyline>
                    <path d="M76.771,143.273 C80.384,143.273 83.863,141.768 87.21,138.755 C90.555,135.745 93.164,131.765 95.039,126.812 L97.248,128.015 C91.226,139.795 83.998,145.684 75.566,145.684 C63.788,145.684 54.919,139.493 48.965,127.112 C43.009,114.733 40.031,96.898 40.031,73.61 C40.031,58.486 41.503,45.472 44.448,34.563 C47.391,23.656 51.542,15.359 56.896,9.667 C62.247,3.98 68.606,1.135 75.968,1.135 C82.658,1.135 87.913,3.714 91.727,8.864 C95.542,14.019 97.449,20.543 97.449,28.438 C97.449,33.256 96.646,36.87 95.039,39.28 C93.434,41.688 91.356,42.894 88.816,42.894 C86.408,42.894 84.365,41.789 82.693,39.581 C81.018,37.373 80.184,34.26 80.184,30.246 C80.184,28.106 80.586,25.898 81.388,23.62 C82.191,21.347 83.261,18.671 84.601,15.59 C84.867,14.922 85.334,13.784 86.006,12.177 C86.674,10.572 87.009,9.367 87.009,8.563 C87.009,7.494 86.307,6.425 84.902,5.352 C83.497,4.282 81.856,3.746 79.982,3.746 C78.106,3.746 76.3,4.416 74.563,5.753 C70.413,8.833 67.334,16.463 65.328,28.64 C63.319,40.82 62.316,55.742 62.316,73.409 C62.316,91.477 63.386,107.407 65.528,121.19 C67.668,134.977 70.678,142.271 74.563,143.073 C75.096,143.208 75.833,143.273 76.771,143.273" id="C"></path>
                    <path d="M127.863,126.41 C129.268,138.054 132.513,143.874 137.601,143.874 C142.686,143.874 145.964,137.989 147.438,126.208 C148.911,114.433 149.647,96.898 149.647,73.61 C149.647,50.322 148.911,32.725 147.438,20.81 C145.964,8.9 142.686,2.942 137.601,2.942 C132.513,2.942 129.268,8.833 127.863,20.608 C126.457,32.388 125.757,50.055 125.757,73.61 C125.757,97.168 126.457,114.765 127.863,126.41 Z M112.908,21.111 C118.528,7.661 126.76,0.935 137.601,0.935 C148.442,0.935 156.704,7.661 162.395,21.111 C168.082,34.563 170.928,52.063 170.928,73.61 C170.928,95.16 168.082,112.592 162.395,125.908 C156.704,139.227 148.442,145.884 137.601,145.884 C126.76,145.884 118.528,139.227 112.908,125.908 C107.286,112.592 104.474,95.16 104.474,73.61 C104.474,52.063 107.286,34.563 112.908,21.111 L112.908,21.111 Z" id="O"></path>
                    <polyline id="N" points="241.594 3.143 241.594 5.151 234.767 5.151 234.767 143.675 232.357 143.675 185.983 13.382 185.983 141.667 194.815 141.667 194.815 143.675 176.545 143.675 176.545 141.667 183.774 141.667 183.774 5.151 176.545 5.151 176.545 3.143 203.649 3.143 232.56 84.05 232.56 5.151 225.132 5.151 225.132 3.143 241.594 3.143"></polyline>
                </g>
                <rect id="border" x="0" y="167" width="242" height="1.5"></rect>
                <path d="M3,185.378 L7.851,185.378 C8.70500427,185.378 9.47499657,185.454999 10.161,185.609 C10.8470034,185.763001 11.4349976,186.014998 11.925,186.365 C12.4150025,186.715002 12.7929987,187.162997 13.059,187.709 C13.3250013,188.255003 13.458,188.912996 13.458,189.683 C13.458,190.509004 13.3040015,191.201997 12.996,191.762 C12.6879985,192.322003 12.2715026,192.773498 11.7465,193.1165 C11.2214974,193.459502 10.6090035,193.707999 9.909,193.862 C9.2089965,194.016001 8.46700392,194.093 7.683,194.093 L5.646,194.093 L5.646,200.246 L3,200.246 L3,185.378 Z M7.494,191.867 C7.92800217,191.867 8.34099804,191.8355 8.733,191.7725 C9.12500196,191.7095 9.47499846,191.597501 9.783,191.4365 C10.0910015,191.275499 10.3359991,191.055001 10.518,190.775 C10.7000009,190.494999 10.791,190.131002 10.791,189.683 C10.791,189.248998 10.7000009,188.895501 10.518,188.6225 C10.3359991,188.349499 10.0945015,188.136001 9.7935,187.982 C9.4924985,187.827999 9.14950193,187.7265 8.7645,187.6775 C8.37949808,187.6285 7.98400203,187.604 7.578,187.604 L5.646,187.604 L5.646,191.867 L7.494,191.867 Z M30.7940001,194.786 C30.7940001,195.682004 30.6400016,196.490496 30.3320001,197.2115 C30.0239986,197.932504 29.6040028,198.544997 29.0720001,199.049 C28.5399974,199.553003 27.9100037,199.941499 27.1820001,200.2145 C26.4539965,200.487501 25.6630044,200.624 24.8090001,200.624 C23.9549958,200.624 23.1640037,200.487501 22.4360001,200.2145 C21.7079965,199.941499 21.0745028,199.553003 20.5355001,199.049 C19.9964974,198.544997 19.5765016,197.932504 19.2755001,197.2115 C18.9744986,196.490496 18.8240001,195.682004 18.8240001,194.786 L18.8240001,185.378 L21.4700001,185.378 L21.4700001,194.681 C21.4700001,195.115002 21.5259995,195.545498 21.6380001,195.9725 C21.7500007,196.399502 21.9354988,196.780998 22.1945001,197.117 C22.4535014,197.453002 22.796498,197.725999 23.2235001,197.936 C23.6505022,198.146001 24.178997,198.251 24.8090001,198.251 C25.4390033,198.251 25.967498,198.146001 26.3945001,197.936 C26.8215022,197.725999 27.1644988,197.453002 27.4235001,197.117 C27.6825014,196.780998 27.8679995,196.399502 27.9800001,195.9725 C28.0920007,195.545498 28.1480001,195.115002 28.1480001,194.681 L28.1480001,185.378 L30.7940001,185.378 L30.7940001,194.786 Z M37.0840002,185.378 L42.8800002,185.378 C43.440003,185.378 43.9929975,185.444499 44.5390002,185.5775 C45.0850029,185.710501 45.5714981,185.927498 45.9985002,186.2285 C46.4255023,186.529502 46.7719989,186.917998 47.0380002,187.394 C47.3040015,187.870002 47.4370002,188.443997 47.4370002,189.116 C47.4370002,189.956004 47.1990026,190.648997 46.7230002,191.195 C46.2469978,191.741003 45.6240041,192.132999 44.8540002,192.371 L44.8540002,192.413 C45.7920049,192.539001 46.5619972,192.902997 47.1640002,193.505 C47.7660032,194.107003 48.0670002,194.911995 48.0670002,195.92 C48.0670002,196.732004 47.9060018,197.414497 47.5840002,197.9675 C47.2619986,198.520503 46.8385028,198.964998 46.3135002,199.301 C45.7884976,199.637002 45.1865036,199.878499 44.5075002,200.0255 C43.8284968,200.172501 43.1390037,200.246 42.4390002,200.246 L37.0840002,200.246 L37.0840002,185.378 Z M39.7300002,191.426 L42.0820002,191.426 C42.9640046,191.426 43.6359979,191.251002 44.0980002,190.901 C44.5600025,190.550998 44.7910002,190.054003 44.7910002,189.41 C44.7910002,188.737997 44.5530026,188.262001 44.0770002,187.982 C43.6009978,187.701999 42.8590052,187.562 41.8510002,187.562 L39.7300002,187.562 L39.7300002,191.426 Z M39.7300002,198.02 L42.1030002,198.02 C42.4390019,198.02 42.8029982,197.9955 43.1950002,197.9465 C43.5870022,197.8975 43.9474986,197.796001 44.2765002,197.642 C44.6055019,197.487999 44.8784991,197.264001 45.0955002,196.97 C45.3125013,196.675999 45.4210002,196.284002 45.4210002,195.794 C45.4210002,195.009996 45.1550029,194.464002 44.6230002,194.156 C44.0909975,193.847998 43.2860056,193.694 42.2080002,193.694 L39.7300002,193.694 L39.7300002,198.02 Z M53.8110003,185.378 L56.4570003,185.378 L56.4570003,197.894 L62.7780003,197.894 L62.7780003,200.246 L53.8110003,200.246 L53.8110003,185.378 Z M67.6820004,185.378 L70.3280004,185.378 L70.3280004,200.246 L67.6820004,200.246 L67.6820004,185.378 Z M87.4750005,188.864 C87.0829986,188.331997 86.5720037,187.943501 85.9420005,187.6985 C85.3119974,187.453499 84.6960035,187.331 84.0940005,187.331 C83.3239967,187.331 82.6240037,187.470999 81.9940005,187.751 C81.3639974,188.031001 80.8215028,188.415998 80.3665005,188.906 C79.9114982,189.396002 79.5615017,189.969997 79.3165005,190.628 C79.0714993,191.286003 78.9490005,191.999996 78.9490005,192.77 C78.9490005,193.582004 79.0679993,194.323997 79.3060005,194.996 C79.5440017,195.668003 79.8834983,196.245498 80.3245005,196.7285 C80.7655027,197.211502 81.2939974,197.585999 81.9100005,197.852 C82.5260036,198.118001 83.2189967,198.251 83.9890005,198.251 C84.7870045,198.251 85.4939974,198.093502 86.1100005,197.7785 C86.7260036,197.463498 87.2229986,197.047003 87.6010005,196.529 L89.7220005,198.02 C89.0639972,198.846004 88.2590053,199.486498 87.3070005,199.9415 C86.3549958,200.396502 85.2420069,200.624 83.9680005,200.624 C82.8059947,200.624 81.7385054,200.431502 80.7655005,200.0465 C79.7924957,199.661498 78.956004,199.122503 78.2560005,198.4295 C77.555997,197.736497 77.0100025,196.910505 76.6180005,195.9515 C76.2259986,194.992495 76.0300005,193.932006 76.0300005,192.77 C76.0300005,191.579994 76.2364985,190.505505 76.6495005,189.5465 C77.0625026,188.587495 77.6294969,187.772003 78.3505005,187.1 C79.0715041,186.427997 79.9219956,185.910002 80.9020005,185.546 C81.8820054,185.181998 82.9459948,185 84.0940005,185 C84.5700029,185 85.0669979,185.0455 85.5850005,185.1365 C86.1030031,185.2275 86.5999981,185.367499 87.0760005,185.5565 C87.5520029,185.745501 87.9999984,185.979999 88.4200005,186.26 C88.8400026,186.540001 89.1969991,186.875998 89.4910005,187.268 L87.4750005,188.864 Z M102.890001,185.378 L108.056001,185.378 C108.756004,185.378 109.434997,185.451499 110.093001,185.5985 C110.751004,185.745501 111.335498,185.986998 111.846501,186.323 C112.357503,186.659002 112.766999,187.099997 113.075001,187.646 C113.383002,188.192003 113.537001,188.856996 113.537001,189.641 C113.537001,190.719005 113.232504,191.597497 112.623501,192.2765 C112.014498,192.955503 111.185006,193.413999 110.135001,193.652 L114.104001,200.246 L110.912001,200.246 L107.468001,193.946 L105.536001,193.946 L105.536001,200.246 L102.890001,200.246 L102.890001,185.378 Z M107.699001,191.783 C108.077003,191.783 108.454999,191.755 108.833001,191.699 C109.211003,191.643 109.550499,191.538001 109.851501,191.384 C110.152502,191.229999 110.401,191.009501 110.597001,190.7225 C110.793002,190.435499 110.891001,190.068002 110.891001,189.62 C110.891001,189.213998 110.800002,188.881501 110.618001,188.6225 C110.436,188.363499 110.205002,188.157001 109.925001,188.003 C109.644999,187.848999 109.326503,187.744 108.969501,187.688 C108.612499,187.632 108.266002,187.604 107.930001,187.604 L105.536001,187.604 L105.536001,191.783 L107.699001,191.783 Z M119.239001,185.378 L129.088001,185.378 L129.088001,187.688 L121.885001,187.688 L121.885001,191.468 L128.710001,191.468 L128.710001,193.694 L121.885001,193.694 L121.885001,197.894 L129.466001,197.894 L129.466001,200.246 L119.239001,200.246 L119.239001,185.378 Z M135.189001,185.378 L137.835001,185.378 L137.835001,197.894 L144.156001,197.894 L144.156001,200.246 L135.189001,200.246 L135.189001,185.378 Z M153.722001,185.378 L156.011001,185.378 L162.416001,200.246 L159.392001,200.246 L158.006001,196.844 L151.559001,196.844 L150.215001,200.246 L147.254001,200.246 L153.722001,185.378 Z M157.082001,194.576 L154.793001,188.528 L152.462001,194.576 L157.082001,194.576 Z M168.769001,187.688 L164.212001,187.688 L164.212001,185.378 L175.972001,185.378 L175.972001,187.688 L171.415001,187.688 L171.415001,200.246 L168.769001,200.246 L168.769001,187.688 Z M180.834001,185.378 L183.480001,185.378 L183.480001,200.246 L180.834001,200.246 L180.834001,185.378 Z M189.182001,192.77 C189.182001,191.579994 189.381499,190.505505 189.780501,189.5465 C190.179503,188.587495 190.732498,187.772003 191.439501,187.1 C192.146505,186.427997 192.986496,185.910002 193.959501,185.546 C194.932506,185.181998 195.992996,185 197.141001,185 C198.303007,185 199.373996,185.181998 200.354001,185.546 C201.334006,185.910002 202.180998,186.427997 202.895001,187.1 C203.609005,187.772003 204.165499,188.587495 204.564501,189.5465 C204.963503,190.505505 205.163001,191.579994 205.163001,192.77 C205.163001,193.932006 204.963503,194.992495 204.564501,195.9515 C204.165499,196.910505 203.609005,197.736497 202.895001,198.4295 C202.180998,199.122503 201.334006,199.661498 200.354001,200.0465 C199.373996,200.431502 198.303007,200.624 197.141001,200.624 C195.992996,200.624 194.932506,200.431502 193.959501,200.0465 C192.986496,199.661498 192.146505,199.122503 191.439501,198.4295 C190.732498,197.736497 190.179503,196.910505 189.780501,195.9515 C189.381499,194.992495 189.182001,193.932006 189.182001,192.77 Z M192.059001,192.77 C192.059001,193.568004 192.1815,194.299497 192.426501,194.9645 C192.671503,195.629503 193.021499,196.206998 193.476501,196.697 C193.931504,197.187002 194.470498,197.568499 195.093501,197.8415 C195.716504,198.114501 196.405998,198.251 197.162001,198.251 C197.918005,198.251 198.610998,198.114501 199.241001,197.8415 C199.871005,197.568499 200.413499,197.187002 200.868501,196.697 C201.323504,196.206998 201.6735,195.629503 201.918501,194.9645 C202.163503,194.299497 202.286001,193.568004 202.286001,192.77 C202.286001,191.999996 202.163503,191.286003 201.918501,190.628 C201.6735,189.969997 201.327004,189.396002 200.879001,188.906 C200.430999,188.415998 199.892005,188.031001 199.262001,187.751 C198.631998,187.470999 197.932005,187.331 197.162001,187.331 C196.391998,187.331 195.695504,187.470999 195.072501,187.751 C194.449498,188.031001 193.914004,188.415998 193.466001,188.906 C193.017999,189.396002 192.671503,189.969997 192.426501,190.628 C192.1815,191.286003 192.059001,191.999996 192.059001,192.77 Z M210.865001,185.378 L214.372001,185.378 L221.281001,196.508 L221.323001,196.508 L221.323001,185.378 L223.969001,185.378 L223.969001,200.246 L220.609001,200.246 L213.553001,188.759 L213.511001,188.759 L213.511001,200.246 L210.865001,200.246 L210.865001,185.378 Z M237.966002,188.486 C237.686,188.121998 237.290504,187.817501 236.779502,187.5725 C236.268499,187.327499 235.754004,187.205 235.236002,187.205 C234.928,187.205 234.620003,187.2435 234.312002,187.3205 C234.004,187.3975 233.724003,187.516499 233.472002,187.6775 C233.22,187.838501 233.013502,188.048499 232.852502,188.3075 C232.691501,188.566501 232.611002,188.877998 232.611002,189.242 C232.611002,189.578002 232.681001,189.864999 232.821002,190.103 C232.961002,190.341001 233.1535,190.543999 233.398502,190.712 C233.643503,190.880001 233.941,191.026999 234.291002,191.153 C234.641003,191.279001 235.025999,191.404999 235.446002,191.531 C235.922004,191.685001 236.415499,191.859999 236.926502,192.056 C237.437504,192.252001 237.906499,192.510998 238.333502,192.833 C238.760504,193.155002 239.1105,193.560998 239.383502,194.051 C239.656503,194.541002 239.793002,195.149996 239.793002,195.878 C239.793002,196.676004 239.646003,197.372497 239.352002,197.9675 C239.058,198.562503 238.666004,199.055998 238.176002,199.448 C237.685999,199.840002 237.112005,200.133999 236.454002,200.33 C235.795998,200.526001 235.103005,200.624 234.375002,200.624 C233.408997,200.624 232.464006,200.445502 231.540002,200.0885 C230.615997,199.731498 229.860005,199.203003 229.272002,198.503 L231.162002,196.739 C231.526003,197.243003 232.012499,197.641999 232.621502,197.936 C233.230505,198.230001 233.828999,198.377 234.417002,198.377 C234.725003,198.377 235.04,198.3385 235.362002,198.2615 C235.684003,198.1845 235.9745,198.055001 236.233502,197.873 C236.492503,197.690999 236.702501,197.463501 236.863502,197.1905 C237.024502,196.917499 237.105002,196.578002 237.105002,196.172 C237.105002,195.779998 237.014002,195.454501 236.832002,195.1955 C236.650001,194.936499 236.405003,194.712501 236.097002,194.5235 C235.789,194.334499 235.425004,194.170001 235.005002,194.03 L233.682002,193.589 C233.233999,193.448999 232.786004,193.281001 232.338002,193.085 C231.889999,192.888999 231.487503,192.630002 231.130502,192.308 C230.7735,191.985998 230.483003,191.590502 230.259002,191.1215 C230.035,190.652498 229.923002,190.068004 229.923002,189.368 C229.923002,188.611996 230.0805,187.961003 230.395502,187.415 C230.710503,186.868997 231.123499,186.417502 231.634502,186.0605 C232.145504,185.703498 232.726498,185.437501 233.377502,185.2625 C234.028505,185.087499 234.689998,185 235.362002,185 C236.118005,185 236.884498,185.132999 237.661502,185.399 C238.438505,185.665001 239.113999,186.063997 239.688002,186.596 L237.966002,188.486 Z" id="PUBLIC-RELATIONS"></path>
            </g>
        </g>
    </g>
</svg>