<?xml version="1.0" encoding="UTF-8"?>
<svg width="40px" height="32px" viewBox="0 0 40 32" version="1.1" xmlns="http://www.w3.org/2000/svg" xmlns:xlink="http://www.w3.org/1999/xlink">
    <!-- Generator: Sketch 48.2 (47327) - http://www.bohemiancoding.com/sketch -->
    <title>twitter</title>
    <desc>Created with Sketch.</desc>
    <defs></defs>
    <g id="icons" stroke="none" stroke-width="1" fill="none" fill-rule="evenodd" transform="translate(-595.000000, -524.000000)">
        <path d="M608.000665,556 C622.859712,556 630.985546,543.689955 630.985546,533.015118 C630.985546,532.66547 630.978425,532.317406 630.962741,531.970915 C632.540078,530.83063 633.911032,529.407644 634.992363,527.787762 C633.544907,528.431143 631.987257,528.864257 630.353238,529.059554 C632.021082,528.059442 633.301528,526.477389 633.905615,524.591402 C632.344794,525.516704 630.616303,526.189219 628.775901,526.552305 C627.301755,524.982103 625.203044,524 622.879187,524 C618.418038,524 614.80039,527.61778 614.80039,532.077212 C614.80039,532.711133 614.871263,533.327745 615.009864,533.9192 C608.295811,533.581363 602.342283,530.366823 598.357849,525.478902 C597.664074,526.672726 597.264032,528.059482 597.264032,529.539177 C597.264032,532.341863 598.690215,534.816081 600.858954,536.263536 C599.533584,536.222587 598.288548,535.858764 597.200347,535.253185 C597.199158,535.287078 597.199158,535.320122 597.199158,535.356346 C597.199158,539.268638 599.983742,542.535091 603.680138,543.275269 C603.001321,543.460327 602.287119,543.559554 601.549981,543.559554 C601.030244,543.559554 600.523879,543.5084 600.031705,543.413871 C601.060158,546.623641 604.042432,548.95939 607.578161,549.024661 C604.813263,551.191814 601.330253,552.482567 597.544803,552.482567 C596.893547,552.482567 596.250179,552.445523 595.617857,552.370742 C599.193092,554.662359 603.438345,555.999489 608.001101,555.999489" id="twitter" fill="#424148" fill-rule="nonzero"></path>
    </g>
</svg>