<?xml version="1.0" encoding="UTF-8"?>
<svg width="40px" height="32px" viewBox="0 0 40 32" version="1.1" xmlns="http://www.w3.org/2000/svg" xmlns:xlink="http://www.w3.org/1999/xlink">
    <!-- Generator: Sketch 49 (51002) - http://www.bohemiancoding.com/sketch -->
    <title>twitter</title>
    <desc>Created with Sketch.</desc>
    <defs></defs>
    <g id="Page-1" stroke="none" stroke-width="1" fill="none" fill-rule="evenodd">
        <g id="twitter" fill="#D2808D" fill-rule="nonzero">
            <path d="M13.000665,32 C27.859712,32 35.985546,19.689955 35.985546,9.015118 C35.985546,8.66547 35.978425,8.317406 35.962741,7.970915 C37.540078,6.83063 38.911032,5.407644 39.992363,3.787762 C38.544907,4.431143 36.987257,4.864257 35.353238,5.059554 C37.021082,4.059442 38.301528,2.477389 38.905615,0.591402 C37.344794,1.516704 35.616303,2.189219 33.775901,2.552305 C32.301755,0.982103 30.203044,0 27.879187,0 C23.418038,0 19.80039,3.61778 19.80039,8.077212 C19.80039,8.711133 19.871263,9.327745 20.009864,9.9192 C13.295811,9.581363 7.342283,6.366823 3.357849,1.478902 C2.664074,2.672726 2.264032,4.059482 2.264032,5.539177 C2.264032,8.341863 3.690215,10.816081 5.858954,12.263536 C4.533584,12.222587 3.288548,11.858764 2.200347,11.253185 C2.199158,11.287078 2.199158,11.320122 2.199158,11.356346 C2.199158,15.268638 4.983742,18.535091 8.680138,19.275269 C8.001321,19.460327 7.287119,19.559554 6.549981,19.559554 C6.030244,19.559554 5.523879,19.5084 5.031705,19.413871 C6.060158,22.623641 9.042432,24.95939 12.578161,25.024661 C9.813263,27.191814 6.330253,28.482567 2.544803,28.482567 C1.893547,28.482567 1.250179,28.445523 0.617857,28.370742 C4.193092,30.662359 8.438345,31.999489 13.001101,31.999489"></path>
        </g>
    </g>
</svg>